<?xml version="1.0" encoding="UTF-8"?>
<svg xmlns="http://www.w3.org/2000/svg" width="1200" height="630" viewBox="0 0 1200 630">
  <defs>
    <linearGradient id="bg" x1="0" y1="0" x2="1" y2="1">
      <stop offset="0%" stop-color="#0f172a"/>
      <stop offset="55%" stop-color="#1e293b"/>
      <stop offset="100%" stop-color="#0f172a"/>
    </linearGradient>
    <radialGradient id="glow" cx="0.2" cy="0.2" r="0.6">
      <stop offset="0%" stop-color="#2563eb" stop-opacity="0.45"/>
      <stop offset="100%" stop-color="#2563eb" stop-opacity="0"/>
    </radialGradient>
    <style>
      .display { font-family: 'Instrument Sans', system-ui, sans-serif; font-weight: 700; letter-spacing: -0.03em; }
      .meta { font-family: 'Instrument Sans', system-ui, sans-serif; font-weight: 500; letter-spacing: 0.02em; }
      .mono { font-family: 'SF Mono', ui-monospace, monospace; }
    </style>
  </defs>

  <rect width="1200" height="630" fill="url(#bg)"/>
  <rect width="1200" height="630" fill="url(#glow)"/>

  <g opacity="0.06" stroke="#60a5fa" stroke-width="1">
    <line x1="0" y1="0" x2="0" y2="630"/><line x1="50" y1="0" x2="50" y2="630"/><line x1="100" y1="0" x2="100" y2="630"/><line x1="150" y1="0" x2="150" y2="630"/><line x1="200" y1="0" x2="200" y2="630"/><line x1="250" y1="0" x2="250" y2="630"/><line x1="300" y1="0" x2="300" y2="630"/><line x1="350" y1="0" x2="350" y2="630"/><line x1="400" y1="0" x2="400" y2="630"/><line x1="450" y1="0" x2="450" y2="630"/><line x1="500" y1="0" x2="500" y2="630"/><line x1="550" y1="0" x2="550" y2="630"/><line x1="600" y1="0" x2="600" y2="630"/><line x1="650" y1="0" x2="650" y2="630"/><line x1="700" y1="0" x2="700" y2="630"/><line x1="750" y1="0" x2="750" y2="630"/><line x1="800" y1="0" x2="800" y2="630"/><line x1="850" y1="0" x2="850" y2="630"/><line x1="900" y1="0" x2="900" y2="630"/><line x1="950" y1="0" x2="950" y2="630"/><line x1="1000" y1="0" x2="1000" y2="630"/><line x1="1050" y1="0" x2="1050" y2="630"/><line x1="1100" y1="0" x2="1100" y2="630"/><line x1="1150" y1="0" x2="1150" y2="630"/>
    <line x1="0" y1="0" x2="1200" y2="0"/><line x1="0" y1="50" x2="1200" y2="50"/><line x1="0" y1="100" x2="1200" y2="100"/><line x1="0" y1="150" x2="1200" y2="150"/><line x1="0" y1="200" x2="1200" y2="200"/><line x1="0" y1="250" x2="1200" y2="250"/><line x1="0" y1="300" x2="1200" y2="300"/><line x1="0" y1="350" x2="1200" y2="350"/><line x1="0" y1="400" x2="1200" y2="400"/><line x1="0" y1="450" x2="1200" y2="450"/><line x1="0" y1="500" x2="1200" y2="500"/><line x1="0" y1="550" x2="1200" y2="550"/><line x1="0" y1="600" x2="1200" y2="600"/>
  </g>

  <g transform="translate(80, 80)">
    <rect width="48" height="48" rx="10" fill="#2563eb"/>
    <text x="24" y="32" text-anchor="middle" fill="white" font-size="22" class="display">IA</text>
    <text x="64" y="32" fill="white" font-size="22" class="display">IA · Saúde</text>
  </g>

  <text x="80" y="280" fill="white" font-size="78" class="display">Inteligência artificial</text>
  <text x="80" y="370" fill="#60a5fa" font-size="78" class="display">para profissionais</text>
  <text x="80" y="460" fill="white" font-size="78" class="display">de saúde.</text>

  <g transform="translate(80, 540)">
    <text fill="#94a3b8" font-size="22" class="meta">14 secções · 33 demos interactivos · ~80 min</text>
    <text y="36" fill="#64748b" font-size="18" class="mono">tiagojct.github.io/learning-health-ai</text>
  </g>

  <g transform="translate(880, 80)">
    <rect width="240" height="80" rx="14" fill="#fef3c7" stroke="#f59e0b" stroke-width="2"/>
    <text x="20" y="32" fill="#92400e" font-size="12" class="meta">CASO QUE NOS ACOMPANHA</text>
    <text x="20" y="60" fill="#0f172a" font-size="24" class="display">Maria, 64</text>
  </g>
</svg>
